<?xml version="1.0" encoding="UTF-8"?>
<svg width="512px" height="416px" viewBox="0 0 512 416" version="1.1" xmlns="http://www.w3.org/2000/svg" xmlns:xlink="http://www.w3.org/1999/xlink">
    <!-- Generator: Sketch 64 (93537) - https://sketch.com -->
    <title>Path Copy 3</title>
    <desc>Created with Sketch.</desc>
    <g id="Page-1" stroke="none" stroke-width="1" fill="none" fill-rule="evenodd">
        <g id="Artboard" transform="translate(-490.000000, -971.000000)" fill="#D3D3D3" fill-rule="nonzero">
            <path d="M1002,1020.248 C982.96,1028.6 962.672,1034.136 941.52,1036.824 C963.28,1023.832 979.888,1003.416 987.696,978.808 C967.408,990.904 945.008,999.448 921.136,1004.216 C901.872,983.704 874.416,971 844.464,971 C786.352,971 739.568,1018.168 739.568,1075.992 C739.568,1084.312 740.272,1092.312 742,1099.928 C654.736,1095.672 577.52,1053.848 525.648,990.136 C516.592,1005.848 511.28,1023.832 511.28,1043.192 C511.28,1079.544 530,1111.768 557.904,1130.424 C541.04,1130.104 524.496,1125.208 510.48,1117.496 C510.48,1117.816 510.48,1118.232 510.48,1118.648 C510.48,1169.656 546.864,1212.024 594.576,1221.784 C586.032,1224.12 576.72,1225.24 567.056,1225.24 C560.336,1225.24 553.552,1224.856 547.184,1223.448 C560.784,1265.016 599.376,1295.576 645.264,1296.568 C609.552,1324.504 564.208,1341.336 515.12,1341.336 C506.512,1341.336 498.256,1340.952 490,1339.896 C536.496,1369.88 591.6,1387 651.024,1387 C844.176,1387 949.776,1227 949.776,1088.312 C949.776,1083.672 949.616,1079.192 949.392,1074.744 C970.224,1059.96 987.728,1041.496 1002,1020.248 Z" id="Path-Copy-3"></path>
        </g>
    </g>
</svg>