<?xml version="1.0" encoding="UTF-8"?>
<svg width="512px" height="352px" viewBox="0 0 512 352" version="1.1" xmlns="http://www.w3.org/2000/svg" xmlns:xlink="http://www.w3.org/1999/xlink">
    <!-- Generator: Sketch 64 (93537) - https://sketch.com -->
    <title>Shape Copy</title>
    <desc>Created with Sketch.</desc>
    <g id="Page-1" stroke="none" stroke-width="1" fill="none" fill-rule="evenodd">
        <g id="Artboard" transform="translate(-1102.000000, -1003.000000)" fill="#D3D3D3" fill-rule="nonzero">
            <path d="M1592.24,1036.92 C1578.352,1012.216 1563.28,1007.672 1532.592,1005.944 C1501.936,1003.864 1424.848,1003 1358.064,1003 C1291.152,1003 1214.032,1003.864 1183.408,1005.912 C1152.784,1007.672 1137.68,1012.184 1123.664,1036.92 C1109.36,1061.592 1102,1104.088 1102,1178.904 C1102,1178.968 1102,1179 1102,1179 C1102,1179.064 1102,1179.096 1102,1179.096 L1102,1179.16 C1102,1253.656 1109.36,1296.472 1123.664,1320.888 C1137.68,1345.592 1152.752,1350.072 1183.376,1352.152 C1214.032,1353.944 1291.152,1355 1358.064,1355 C1424.848,1355 1501.936,1353.944 1532.624,1352.184 C1563.312,1350.104 1578.384,1345.624 1592.272,1320.92 C1606.704,1296.504 1614,1253.688 1614,1179.192 C1614,1179.192 1614,1179.096 1614,1179.032 C1614,1179.032 1614,1178.968 1614,1178.936 C1614,1104.088 1606.704,1061.592 1592.24,1036.92 Z M1294,1275 L1294,1083 L1454,1179 L1294,1275 Z" id="Shape-Copy"></path>
        </g>
    </g>
</svg>