<?xml version="1.0" encoding="UTF-8"?>
<svg width="512px" height="352px" viewBox="0 0 512 352" version="1.1" xmlns="http://www.w3.org/2000/svg" xmlns:xlink="http://www.w3.org/1999/xlink">
    <!-- Generator: Sketch 64 (93537) - https://sketch.com -->
    <title>Shape Copy 6</title>
    <desc>Created with Sketch.</desc>
    <g id="Page-1" stroke="none" stroke-width="1" fill="none" fill-rule="evenodd">
        <g id="Artboard" transform="translate(-1102.000000, -1743.000000)" fill="#ACACAC" fill-rule="nonzero">
            <path d="M1592.24,1776.92 C1578.352,1752.216 1563.28,1747.672 1532.592,1745.944 C1501.936,1743.864 1424.848,1743 1358.064,1743 C1291.152,1743 1214.032,1743.864 1183.408,1745.912 C1152.784,1747.672 1137.68,1752.184 1123.664,1776.92 C1109.36,1801.592 1102,1844.088 1102,1918.904 C1102,1918.968 1102,1919 1102,1919 C1102,1919.064 1102,1919.096 1102,1919.096 L1102,1919.16 C1102,1993.656 1109.36,2036.472 1123.664,2060.888 C1137.68,2085.592 1152.752,2090.072 1183.376,2092.152 C1214.032,2093.944 1291.152,2095 1358.064,2095 C1424.848,2095 1501.936,2093.944 1532.624,2092.184 C1563.312,2090.104 1578.384,2085.624 1592.272,2060.92 C1606.704,2036.504 1614,1993.688 1614,1919.192 C1614,1919.192 1614,1919.096 1614,1919.032 C1614,1919.032 1614,1918.968 1614,1918.936 C1614,1844.088 1606.704,1801.592 1592.24,1776.92 Z M1294,2015 L1294,1823 L1454,1919 L1294,2015 Z" id="Shape-Copy-6"></path>
        </g>
    </g>
</svg>